<svg width="188" height="32" viewBox="0 0 188 32" fill="none" xmlns="http://www.w3.org/2000/svg" role="img" aria-label="Synthesize Bio">
  <title>Synthesize Bio</title>
  <path d="M178.387 16.9373C178.387 18.1182 178.66 18.9963 179.205 19.5716C179.765 20.1318 180.476 20.4118 181.339 20.4118C182.217 20.4118 182.929 20.1318 183.474 19.5716C184.034 18.9963 184.314 18.1485 184.314 17.0281V16.3923C184.314 15.1962 184.034 14.303 183.474 13.7125C182.914 13.1069 182.202 12.8041 181.339 12.8041C180.476 12.8041 179.765 13.0994 179.205 13.6898C178.66 14.2803 178.387 15.1508 178.387 16.3014V16.9373ZM187.107 16.9373C187.107 18.1333 186.858 19.1553 186.358 20.0031C185.874 20.8509 185.2 21.5019 184.337 21.9561C183.474 22.3952 182.475 22.6147 181.339 22.6147C180.219 22.6147 179.227 22.3952 178.364 21.9561C177.501 21.5019 176.82 20.8585 176.32 20.0258C175.836 19.178 175.594 18.1787 175.594 17.0281V16.3923C175.594 15.1811 175.836 14.144 176.32 13.281C176.82 12.4181 177.501 11.7595 178.364 11.3053C179.242 10.8511 180.234 10.624 181.339 10.624C182.475 10.624 183.474 10.8511 184.337 11.3053C185.2 11.7595 185.874 12.4105 186.358 13.2583C186.858 14.1062 187.107 15.1205 187.107 16.3014V16.9373Z" fill="#F8FAFC"></path>
  <path d="M171.139 22.3425V10.8969H173.887V22.3425H171.139ZM170.98 9.12554V6.40039H174.024V9.12554H170.98Z" fill="#F8FAFC"></path>
  <path d="M156.828 22.3429V6.90039H163.641C165.322 6.90039 166.593 7.25617 167.456 7.96774C168.334 8.66417 168.773 9.58769 168.773 10.7383V10.9654C168.773 11.9646 168.433 12.7897 167.751 13.4407C167.085 14.0766 166.184 14.3945 165.049 14.3945V14.0993C166.29 14.0993 167.29 14.4248 168.047 15.0758C168.804 15.7268 169.182 16.6504 169.182 17.8464V18.0735C169.182 19.3907 168.69 20.4353 167.706 21.2074C166.737 21.9644 165.352 22.3429 163.55 22.3429H156.828ZM159.621 20.1855H163.459C164.413 20.1855 165.125 19.9887 165.594 19.595C166.063 19.1863 166.298 18.6261 166.298 17.9145V17.6874C166.298 16.9607 166.071 16.4081 165.617 16.0296C165.163 15.636 164.466 15.4392 163.527 15.4392H159.621V20.1855ZM159.621 13.3499H163.459C164.292 13.3499 164.913 13.1758 165.322 12.8276C165.745 12.4642 165.957 11.9873 165.957 11.3969V11.1698C165.957 10.5642 165.73 10.0646 165.276 9.67096C164.822 9.26219 164.141 9.0578 163.232 9.0578H159.621V13.3499Z" fill="#F8FAFC"></path>
  <path d="M138.996 16.3923C138.996 15.1962 139.238 14.1667 139.723 13.3038C140.207 12.4408 140.881 11.7822 141.744 11.328C142.607 10.8587 143.583 10.624 144.673 10.624C145.748 10.624 146.695 10.8435 147.512 11.2826C148.33 11.7217 148.966 12.3651 149.42 13.2129C149.874 14.0607 150.101 15.0902 150.101 16.3014V17.1644H140.836V15.3022H147.739L147.376 15.6428C147.376 14.689 147.119 13.9548 146.604 13.44C146.104 12.9101 145.43 12.6452 144.583 12.6452C143.72 12.6452 143.031 12.9177 142.516 13.4627C142.001 13.9926 141.744 14.742 141.744 15.711V17.2098C141.744 18.2696 142.024 19.0947 142.584 19.6851C143.144 20.2756 143.864 20.5708 144.742 20.5708C145.438 20.5708 145.998 20.4194 146.422 20.1166C146.846 19.7987 147.126 19.4126 147.262 18.9584H149.897C149.685 20.0788 149.125 20.972 148.216 21.6382C147.308 22.2892 146.142 22.6147 144.719 22.6147C143.568 22.6147 142.561 22.3876 141.699 21.9334C140.836 21.4792 140.169 20.8282 139.7 19.9804C139.231 19.1325 138.996 18.1182 138.996 16.9373V16.3923Z" fill="#F8FAFC"></path>
  <path d="M128.567 20.1393L136.265 11.2371L136.833 13.0085H128.567V10.8965H137.764V13.0766L130.088 22.0015L129.407 20.2074H137.923V22.3421H128.567V20.1393Z" fill="#F8FAFC"></path>
  <path d="M123.956 22.3425V10.8969H126.704V22.3425H123.956ZM123.797 9.12554V6.40039H126.84V9.12554H123.797Z" fill="#F8FAFC"></path>
  <path d="M117.213 22.6147C116.093 22.6147 115.169 22.4406 114.443 22.0924C113.731 21.729 113.201 21.2597 112.853 20.6844C112.52 20.1091 112.331 19.4959 112.285 18.8449H114.988C115.033 19.3445 115.245 19.776 115.623 20.1393C116.002 20.5027 116.585 20.6844 117.372 20.6844C118.008 20.6844 118.508 20.5557 118.871 20.2983C119.249 20.0258 119.439 19.67 119.439 19.231C119.439 18.8222 119.302 18.5194 119.03 18.3226C118.757 18.1106 118.417 17.9592 118.008 17.8684L115.51 17.3233C114.677 17.1417 113.973 16.8237 113.398 16.3695C112.823 15.9002 112.535 15.2038 112.535 14.2803C112.535 13.5384 112.739 12.895 113.148 12.35C113.557 11.7898 114.125 11.3659 114.851 11.0782C115.593 10.7754 116.449 10.624 117.418 10.624C118.523 10.624 119.416 10.7981 120.097 11.1463C120.779 11.4946 121.286 11.9412 121.619 12.4862C121.952 13.0312 122.134 13.6065 122.164 14.2121H119.53C119.484 13.7579 119.28 13.3719 118.916 13.0539C118.568 12.7209 118.016 12.5543 117.259 12.5543C116.638 12.5543 116.146 12.683 115.782 12.9404C115.419 13.1978 115.237 13.5384 115.237 13.9623C115.237 14.3408 115.374 14.6133 115.646 14.7799C115.919 14.9464 116.259 15.0827 116.668 15.1886L119.166 15.711C120.044 15.8926 120.763 16.2333 121.324 16.7329C121.884 17.2325 122.164 17.9516 122.164 18.8903C122.164 19.6776 121.952 20.3513 121.528 20.9115C121.119 21.4565 120.544 21.8804 119.802 22.1832C119.06 22.4709 118.197 22.6147 117.213 22.6147Z" fill="#F8FAFC"></path>
  <path d="M99.9219 16.3923C99.9219 15.1962 100.164 14.1667 100.649 13.3038C101.133 12.4408 101.807 11.7822 102.67 11.328C103.533 10.8587 104.509 10.624 105.599 10.624C106.674 10.624 107.62 10.8435 108.438 11.2826C109.256 11.7217 109.891 12.3651 110.346 13.2129C110.8 14.0607 111.027 15.0902 111.027 16.3014V17.1644H101.761V15.3022H108.665L108.302 15.6428C108.302 14.689 108.044 13.9548 107.53 13.44C107.03 12.9101 106.356 12.6452 105.508 12.6452C104.645 12.6452 103.957 12.9177 103.442 13.4627C102.927 13.9926 102.67 14.742 102.67 15.711V17.2098C102.67 18.2696 102.95 19.0947 103.51 19.6851C104.07 20.2756 104.789 20.5708 105.667 20.5708C106.364 20.5708 106.924 20.4194 107.348 20.1166C107.772 19.7987 108.052 19.4126 108.188 18.9584H110.822C110.611 20.0788 110.05 20.972 109.142 21.6382C108.234 22.2892 107.068 22.6147 105.645 22.6147C104.494 22.6147 103.487 22.3876 102.624 21.9334C101.761 21.4792 101.095 20.8282 100.626 19.9804C100.157 19.1325 99.9219 18.1182 99.9219 16.9373V16.3923Z" fill="#F8FAFC"></path>
  <path d="M87.9453 22.342V6.53613H90.6932V13.2582H90.3752C90.7083 12.4255 91.1928 11.782 91.8287 11.3279C92.4797 10.8585 93.2669 10.6239 94.1904 10.6239C94.9474 10.6239 95.6363 10.7904 96.257 11.1235C96.8777 11.4414 97.3698 11.9259 97.7331 12.5769C98.1116 13.2279 98.3009 14.053 98.3009 15.0522V22.342H95.553V15.4383C95.553 14.6056 95.3411 13.9622 94.9172 13.508C94.5084 13.0386 93.9633 12.804 93.2821 12.804C92.4797 12.804 91.8438 13.0916 91.3745 13.6669C90.9203 14.2271 90.6932 14.9765 90.6932 15.9152V22.342H87.9453Z" fill="#F8FAFC"></path>
  <path d="M84.0245 22.342C83.1767 22.342 82.5181 22.2285 82.0488 22.0014C81.5795 21.7743 81.2464 21.4488 81.0496 21.0249C80.8527 20.5858 80.7543 20.0484 80.7543 19.4125V8.10313L83.5022 7.60352V19.0037C83.5022 19.5185 83.5855 19.8667 83.752 20.0484C83.9337 20.2149 84.2743 20.2982 84.7739 20.2982H86.1819V22.342H84.0245ZM78.5742 12.9403V10.8964H86.3182V12.9403H78.5742Z" fill="#F8FAFC"></path>
  <path d="M67.3203 22.3422V10.8965H69.9319V13.2583H69.6821C70.0152 12.4256 70.5072 11.7822 71.1582 11.328C71.8244 10.8587 72.6268 10.624 73.5654 10.624C74.3224 10.624 75.0113 10.7906 75.632 11.1236C76.2527 11.4416 76.7448 11.926 77.1081 12.577C77.4866 13.2281 77.6759 14.0532 77.6759 15.0524V22.3422H74.928V15.4385C74.928 14.6058 74.7161 13.9623 74.2922 13.5081C73.8834 13.0388 73.3384 12.8041 72.6571 12.8041C71.8547 12.8041 71.2188 13.0918 70.7495 13.6671C70.2953 14.2273 70.0682 14.9767 70.0682 15.9154V22.3422H67.3203Z" fill="#F8FAFC"></path>
  <path d="M58.513 26.339L60.08 21.5927L60.1027 21.57L63.3502 10.8965H66.1435L61.1928 26.339H58.513ZM57.8318 21.956L54.2891 10.8965H57.1505L60.4888 21.956H57.8318Z" fill="#F8FAFC"></path>
  <path d="M47.2557 22.7053C45.8022 22.7053 44.6062 22.4783 43.6675 22.0241C42.744 21.5547 42.0552 20.9416 41.601 20.1846C41.1468 19.4276 40.897 18.6025 40.8516 17.7092H43.7584C43.8189 18.2089 43.9779 18.6706 44.2353 19.0945C44.5078 19.5184 44.909 19.8591 45.4389 20.1165C45.9688 20.3738 46.6349 20.5025 47.4373 20.5025C48.4366 20.5025 49.2238 20.283 49.7991 19.8439C50.3896 19.4049 50.6848 18.8447 50.6848 18.1634C50.6848 17.5124 50.4729 17.0355 50.0489 16.7327C49.6402 16.4148 49.1103 16.1801 48.4593 16.0287L45.0983 15.2793C44.3564 15.0976 43.6903 14.8478 43.0998 14.5299C42.5094 14.212 42.04 13.7881 41.6918 13.2582C41.3587 12.7283 41.1922 12.0621 41.1922 11.2597C41.1922 10.3059 41.4572 9.48081 41.987 8.78438C42.5169 8.07281 43.2436 7.52021 44.1672 7.12658C45.1058 6.73295 46.1959 6.53613 47.4373 6.53613C48.8453 6.53613 49.9884 6.76323 50.8665 7.21742C51.7597 7.67161 52.4183 8.26206 52.8422 8.98877C53.2813 9.70033 53.5235 10.4573 53.5689 11.2597H50.7302C50.6999 10.8207 50.5561 10.4119 50.2987 10.0334C50.0565 9.65491 49.6856 9.34455 49.186 9.10232C48.6864 8.86008 48.0429 8.73896 47.2557 8.73896C46.2716 8.73896 45.4995 8.94335 44.9393 9.35212C44.3791 9.74575 44.099 10.2756 44.099 10.9418C44.099 11.5171 44.2958 11.941 44.6895 12.2135C45.0983 12.4709 45.6281 12.6753 46.2792 12.8267L49.6402 13.5988C50.3972 13.7653 51.0784 14.0227 51.684 14.3709C52.2896 14.7191 52.7589 15.1809 53.092 15.7562C53.4402 16.3164 53.6143 17.0204 53.6143 17.8682C53.6143 18.8674 53.3418 19.7304 52.7968 20.4571C52.2669 21.1687 51.5251 21.7213 50.5713 22.1149C49.6326 22.5085 48.5274 22.7053 47.2557 22.7053Z" fill="#F8FAFC"></path>
  <path d="M19.2493 9.61673C19.2471 7.15609 18.3077 4.69653 16.4302 2.81911C12.6718 -0.939703 6.57792 -0.939703 2.81911 2.81911C-0.939703 6.57792 -0.939703 12.6718 2.81911 16.4306C4.69978 18.3113 7.16547 19.2511 9.63044 19.2496V9.61673H19.2493Z" fill="#F8FAFC"></path>
  <path d="M22.3953 12.7507V22.3811H12.7509C12.7523 24.8425 13.6921 27.3031 15.5699 29.1809C19.3287 32.9397 25.4226 32.9397 29.1814 29.1809C32.9402 25.4221 32.9402 19.3282 29.1814 15.5694C27.3072 13.6952 24.852 12.7558 22.3953 12.7507Z" fill="#F8FAFC"></path>
</svg>
