<svg width="1307" height="225" viewBox="0 0 1307 225" fill="none" xmlns="http://www.w3.org/2000/svg">
<path d="M134.462 67.1757C134.446 49.9874 127.884 32.8066 114.77 19.6923C88.5161 -6.5641 45.9487 -6.5641 19.6923 19.6923C-6.5641 45.9487 -6.5641 88.5161 19.6923 114.772C32.8293 127.909 50.0529 134.474 67.2714 134.464V67.1757H134.462Z" fill="#F8FAFC"/>
<path d="M156.44 89.0703V156.342H89.0703C89.0804 173.535 95.6451 190.723 108.762 203.84C135.019 230.096 177.586 230.096 203.842 203.84C230.099 177.584 230.099 135.016 203.842 108.76C190.751 95.6678 173.6 89.1056 156.44 89.0703Z" fill="#F8FAFC"/>
<path d="M1246.08 88.5999C1246.08 96.8489 1247.99 102.983 1251.8 107.001C1255.71 110.914 1260.68 112.871 1266.71 112.871C1272.84 112.871 1277.81 110.914 1281.62 107.001C1285.53 102.983 1287.49 97.0599 1287.49 89.2349V84.7929C1287.49 76.4379 1285.53 70.1985 1281.62 66.0741C1277.71 61.8438 1272.74 59.7287 1266.71 59.7287C1260.68 59.7287 1255.71 61.791 1251.8 65.9154C1247.99 70.0399 1246.08 76.1209 1246.08 84.1579V88.5999ZM1307 88.5999C1307 96.9549 1305.26 104.093 1301.77 110.015C1298.38 115.938 1293.67 120.485 1287.65 123.658C1281.62 126.725 1274.64 128.258 1266.71 128.258C1258.88 128.258 1251.95 126.725 1245.93 123.658C1239.9 120.485 1235.14 115.991 1231.65 110.174C1228.27 104.252 1226.57 97.2719 1226.57 89.2349V84.7929C1226.57 76.3319 1228.27 69.0881 1231.65 63.06C1235.14 57.032 1239.9 52.4316 1245.93 49.259C1252.06 46.0863 1258.99 44.5 1266.71 44.5C1274.64 44.5 1281.62 46.0863 1287.65 49.259C1293.67 52.4316 1298.38 56.9791 1301.77 62.9014C1305.26 68.8237 1307 75.9089 1307 84.1579V88.5999Z" fill="#F8FAFC"/>
<path d="M1195.46 126.36V46.4093H1214.65V126.36H1195.46ZM1194.35 34.0359V15H1215.6V34.0359H1194.35Z" fill="#F8FAFC"/>
<path d="M1095.49 126.363V18.4922H1143.08C1154.82 18.4922 1163.7 20.9774 1169.73 25.9479C1175.86 30.8127 1178.93 37.2637 1178.93 45.3011V46.8875C1178.93 53.8673 1176.55 59.631 1171.79 64.1785C1167.14 68.6202 1160.85 70.841 1152.91 70.841V68.7788C1161.59 68.7788 1168.57 71.053 1173.85 75.6C1179.14 80.147 1181.79 86.599 1181.79 94.953V96.54C1181.79 105.74 1178.35 113.037 1171.48 118.431C1164.71 123.719 1155.03 126.363 1142.45 126.363H1095.49ZM1115 111.292H1141.81C1148.47 111.292 1153.44 109.918 1156.72 107.168C1160 104.313 1161.64 100.4 1161.64 95.429V93.843C1161.64 88.767 1160.05 84.906 1156.88 82.263C1153.71 79.513 1148.84 78.138 1142.29 78.138H1115V111.292ZM1115 63.5439H1141.81C1147.63 63.5439 1151.96 62.3277 1154.82 59.8954C1157.78 57.3572 1159.26 54.0259 1159.26 49.9015V48.3152C1159.26 44.085 1157.67 40.595 1154.5 37.8454C1151.33 34.99 1146.57 33.5623 1140.22 33.5623H1115V63.5439Z" fill="#F8FAFC"/>
<path d="M970.93 84.7929C970.93 76.4379 972.622 69.2467 976.006 63.2187C979.391 57.1906 984.097 52.5903 990.125 49.4176C996.153 46.1392 1002.97 44.5 1010.59 44.5C1018.09 44.5 1024.7 46.0334 1030.42 49.1003C1036.13 52.1672 1040.57 56.6618 1043.74 62.5841C1046.91 68.5064 1048.5 75.6979 1048.5 84.1579V90.1859H983.779V77.1779H1032L1029.46 79.5579C1029.46 72.8949 1027.67 67.7661 1024.07 64.1705C1020.58 60.469 1015.87 58.6183 1009.95 58.6183C1003.92 58.6183 999.114 60.5219 995.518 64.3291C991.922 68.0305 990.125 73.2659 990.125 80.0339V90.5039C990.125 97.9059 992.081 103.67 995.994 107.795C999.907 111.919 1004.93 113.981 1011.06 113.981C1015.93 113.981 1019.84 112.924 1022.8 110.809C1025.76 108.588 1027.72 105.891 1028.67 102.718H1047.07C1045.59 110.544 1041.68 116.784 1035.33 121.437C1028.99 125.985 1020.84 128.258 1010.9 128.258C1002.87 128.258 995.835 126.672 989.807 123.499C983.779 120.327 979.126 115.779 975.848 109.857C972.569 103.935 970.93 96.8489 970.93 88.5999V84.7929Z" fill="#F8FAFC"/>
<path d="M898.078 110.97L951.855 48.7858L955.82 61.1591H898.078V46.4062H962.324V61.635L908.706 123.978L903.947 111.446H963.435V126.357H898.078V110.97Z" fill="#F8FAFC"/>
<path d="M865.868 126.36V46.4093H885.063V126.36H865.868ZM864.758 34.0359V15H886.015V34.0359H864.758Z" fill="#F8FAFC"/>
<path d="M818.768 128.258C810.942 128.258 804.491 127.042 799.414 124.61C794.444 122.072 790.743 118.793 788.31 114.774C785.984 110.756 784.662 106.473 784.344 101.925H803.222C803.539 105.415 805.02 108.429 807.663 110.967C810.307 113.505 814.379 114.774 819.878 114.774C824.32 114.774 827.81 113.876 830.348 112.078C832.992 110.174 834.314 107.689 834.314 104.622C834.314 101.767 833.362 99.6509 831.458 98.2769C829.555 96.7959 827.175 95.7389 824.32 95.1039L806.87 91.2969C801.054 90.0279 796.136 87.8069 792.117 84.6339C788.099 81.3559 786.089 76.4909 786.089 70.0399C786.089 64.8579 787.517 60.3633 790.372 56.5561C793.228 52.6431 797.194 49.682 802.27 47.6726C807.452 45.5575 813.427 44.5 820.195 44.5C827.916 44.5 834.155 45.7162 838.914 48.1485C843.673 50.5809 847.216 53.7007 849.542 57.5079C851.869 61.3151 853.138 65.3338 853.35 69.564H834.948C834.631 66.3913 833.203 63.6946 830.665 61.4737C828.233 59.1471 824.373 57.9838 819.085 57.9838C814.749 57.9838 811.312 58.8827 808.774 60.6805C806.236 62.4784 804.967 64.8579 804.967 67.819C804.967 70.4629 805.918 72.3669 807.822 73.5299C809.726 74.6929 812.105 75.6449 814.96 76.3849L832.41 80.0339C838.544 81.3029 843.567 83.6819 847.48 87.1719C851.393 90.6619 853.35 95.6859 853.35 102.242C853.35 107.742 851.869 112.448 848.908 116.361C846.053 120.168 842.034 123.129 836.852 125.244C831.67 127.254 825.642 128.258 818.768 128.258Z" fill="#F8FAFC"/>
<path d="M697.984 84.7929C697.984 76.4379 699.676 69.2467 703.061 63.2187C706.445 57.1906 711.151 52.5903 717.179 49.4176C723.207 46.1392 730.028 44.5 737.643 44.5C745.151 44.5 751.761 46.0334 757.472 49.1003C763.182 52.1672 767.624 56.6618 770.797 62.5841C773.969 68.5064 775.556 75.6979 775.556 84.1579V90.1859H710.834V77.1779H759.058L756.52 79.5579C756.52 72.8949 754.722 67.7661 751.126 64.1705C747.636 60.469 742.93 58.6183 737.008 58.6183C730.98 58.6183 726.168 60.5219 722.572 64.3291C718.977 68.0305 717.179 73.2659 717.179 80.0339V90.5039C717.179 97.9059 719.135 103.67 723.048 107.795C726.961 111.919 731.985 113.981 738.118 113.981C742.983 113.981 746.896 112.924 749.857 110.809C752.818 108.588 754.775 105.891 755.727 102.718H774.128C772.648 110.544 768.735 116.784 762.389 121.437C756.044 125.985 747.901 128.258 737.96 128.258C729.922 128.258 722.89 126.672 716.862 123.499C710.834 120.327 706.18 115.779 702.902 109.857C699.623 103.935 697.984 96.8489 697.984 88.5999V84.7929Z" fill="#F8FAFC"/>
<path d="M614.32 126.354V15.9453H633.515V62.9007H631.294C633.621 57.0841 637.005 52.5895 641.447 49.4169C645.994 46.1385 651.493 44.4993 657.945 44.4993C663.232 44.4993 668.044 45.6626 672.38 47.9892C676.716 50.2101 680.153 53.5942 682.691 58.1417C685.335 62.6892 686.657 68.4528 686.657 75.4326V126.354H667.463V78.1296C667.463 72.3126 665.982 67.8183 663.021 64.6457C660.165 61.3672 656.358 59.728 651.599 59.728C645.994 59.728 641.552 61.7374 638.274 65.7561C635.101 69.669 633.515 74.9036 633.515 81.4606V126.354H614.32Z" fill="#F8FAFC"/>
<path d="M586.939 126.352C581.016 126.352 576.416 125.558 573.137 123.972C569.859 122.386 567.532 120.112 566.158 117.151C564.783 114.084 564.095 110.33 564.095 105.888V26.8884L583.29 23.3984V103.032C583.29 106.628 583.872 109.061 585.035 110.33C586.304 111.493 588.684 112.075 592.173 112.075H602.009V126.352H586.939ZM548.867 60.6772V46.4002H602.96V60.6772H548.867Z" fill="#F8FAFC"/>
<path d="M470.25 126.355V46.4036H488.493V62.9014H486.748C489.074 57.0849 492.511 52.5903 497.059 49.4176C501.712 46.1392 507.317 44.5 513.874 44.5C519.162 44.5 523.974 45.6633 528.31 47.9899C532.646 50.2108 536.083 53.5949 538.621 58.1424C541.265 62.6899 542.587 68.4535 542.587 75.4329V126.355H523.392V78.1299C523.392 72.3139 521.911 67.819 518.95 64.6464C516.095 61.3679 512.288 59.7287 507.529 59.7287C501.924 59.7287 497.482 61.7381 494.203 65.7568C491.031 69.6697 489.444 74.9049 489.444 81.4619V126.355H470.25Z" fill="#F8FAFC"/>
<path d="M408.733 154.277L419.678 121.123L419.837 120.964L442.521 46.4062H462.033L427.451 154.277H408.733ZM403.974 123.661L379.227 46.4062H399.215L422.534 123.661H403.974Z" fill="#F8FAFC"/>
<path d="M330.093 128.892C319.941 128.892 311.586 127.306 305.029 124.133C298.578 120.855 293.766 116.572 290.594 111.284C287.421 105.996 285.676 100.233 285.359 93.9926H305.664C306.087 97.4826 307.197 100.709 308.995 103.67C310.899 106.631 313.701 109.01 317.403 110.808C321.104 112.606 325.757 113.505 331.362 113.505C338.342 113.505 343.841 111.972 347.86 108.905C351.985 105.838 354.047 101.925 354.047 97.1656C354.047 92.6176 352.566 89.2866 349.605 87.1716C346.75 84.9506 343.048 83.3116 338.501 82.2536L315.023 77.0186C309.841 75.7496 305.188 74.0046 301.063 71.7846C296.939 69.5633 293.66 66.6021 291.228 62.9007C288.901 59.1993 287.738 54.546 287.738 48.941C287.738 42.2784 289.589 36.5147 293.29 31.65C296.992 26.6795 302.068 22.8194 308.519 20.0698C315.076 17.3202 322.69 15.9453 331.362 15.9453C341.197 15.9453 349.182 17.5317 355.316 20.7043C361.555 23.877 366.156 28.0014 369.117 33.0777C372.184 38.0482 373.876 43.336 374.193 48.941H354.364C354.153 45.8741 353.148 43.0187 351.35 40.3748C349.658 37.7309 347.067 35.5629 343.577 33.8709C340.087 32.1788 335.592 31.3327 330.093 31.3327C323.219 31.3327 317.826 32.7604 313.913 35.6158C310 38.3655 308.043 42.0669 308.043 46.7201C308.043 50.7388 309.418 53.7 312.168 55.6036C315.023 57.4014 318.724 58.8291 323.272 59.8867L346.75 65.2802C352.037 66.4435 356.796 68.2413 361.027 70.6736C365.257 73.1056 368.535 76.3316 370.862 80.3506C373.294 84.2636 374.51 89.1806 374.51 95.1036C374.51 102.083 372.607 108.111 368.8 113.188C365.098 118.158 359.916 122.018 353.254 124.768C346.697 127.518 338.977 128.892 330.093 128.892Z" fill="#F8FAFC"/>
<path d="M1165.87 208.069C1162.69 208.069 1159.88 207.265 1157.44 205.658C1155.01 204.034 1153.1 201.747 1151.73 198.797C1150.35 195.83 1149.66 192.326 1149.66 188.282C1149.66 184.272 1150.35 180.791 1151.73 177.842C1153.1 174.892 1155.01 172.613 1157.47 171.006C1159.92 169.398 1162.75 168.594 1165.97 168.594C1168.45 168.594 1170.42 169.009 1171.86 169.837C1173.32 170.649 1174.43 171.577 1175.19 172.621C1175.97 173.649 1176.57 174.494 1177.01 175.157H1177.5V156.364H1183.37V207.273H1177.7V201.407H1177.01C1176.57 202.103 1175.96 202.981 1175.17 204.042C1174.37 205.086 1173.24 206.022 1171.76 206.851C1170.29 207.663 1168.32 208.069 1165.87 208.069ZM1166.66 202.799C1169.02 202.799 1171.01 202.186 1172.63 200.96C1174.25 199.717 1175.49 198.001 1176.33 195.814C1177.18 193.61 1177.6 191.066 1177.6 188.183C1177.6 185.332 1177.19 182.838 1176.36 180.7C1175.53 178.546 1174.3 176.872 1172.68 175.679C1171.06 174.469 1169.05 173.864 1166.66 173.864C1164.18 173.864 1162.11 174.502 1160.45 175.778C1158.81 177.038 1157.58 178.753 1156.75 180.924C1155.93 183.078 1155.53 185.498 1155.53 188.183C1155.53 190.9 1155.94 193.37 1156.77 195.59C1157.62 197.794 1158.86 199.551 1160.5 200.86C1162.16 202.153 1164.21 202.799 1166.66 202.799ZM1210.44 208.069C1206.99 208.069 1203.97 207.249 1201.37 205.608C1198.78 203.967 1196.76 201.672 1195.3 198.722C1193.86 195.772 1193.14 192.326 1193.14 188.381C1193.14 184.404 1193.86 180.932 1195.3 177.966C1196.76 175 1198.78 172.696 1201.37 171.055C1203.97 169.415 1206.99 168.594 1210.44 168.594C1213.89 168.594 1216.9 169.415 1219.49 171.055C1222.09 172.696 1224.11 175 1225.55 177.966C1227.01 180.932 1227.74 184.404 1227.74 188.381C1227.74 192.326 1227.01 195.772 1225.55 198.722C1224.11 201.672 1222.09 203.967 1219.49 205.608C1216.9 207.249 1213.89 208.069 1210.44 208.069ZM1210.44 202.799C1213.06 202.799 1215.21 202.128 1216.9 200.786C1218.59 199.443 1219.84 197.678 1220.66 195.491C1221.47 193.303 1221.87 190.933 1221.87 188.381C1221.87 185.829 1221.47 183.451 1220.66 181.247C1219.84 179.043 1218.59 177.262 1216.9 175.903C1215.21 174.544 1213.06 173.864 1210.44 173.864C1207.82 173.864 1205.67 174.544 1203.98 175.903C1202.29 177.262 1201.04 179.043 1200.22 181.247C1199.41 183.451 1199 185.829 1199 188.381C1199 190.933 1199.41 193.303 1200.22 195.491C1201.04 197.678 1202.29 199.443 1203.98 200.786C1205.67 202.128 1207.82 202.799 1210.44 202.799ZM1252.21 208.069C1248.63 208.069 1245.55 207.224 1242.96 205.533C1240.37 203.843 1238.39 201.515 1236.99 198.548C1235.6 195.582 1234.91 192.193 1234.91 188.381C1234.91 184.504 1235.62 181.081 1237.04 178.115C1238.49 175.132 1240.49 172.804 1243.06 171.13C1245.64 169.44 1248.66 168.594 1252.11 168.594C1254.79 168.594 1257.21 169.092 1259.37 170.086C1261.52 171.08 1263.29 172.472 1264.66 174.262C1266.04 176.052 1266.89 178.14 1267.22 180.526H1261.35C1260.91 178.786 1259.91 177.245 1258.37 175.903C1256.85 174.544 1254.79 173.864 1252.21 173.864C1249.92 173.864 1247.92 174.461 1246.19 175.654C1244.48 176.831 1243.15 178.496 1242.19 180.651C1241.24 182.788 1240.77 185.299 1240.77 188.183C1240.77 191.132 1241.24 193.701 1242.16 195.888C1243.11 198.076 1244.43 199.775 1246.14 200.984C1247.87 202.194 1249.89 202.799 1252.21 202.799C1253.73 202.799 1255.12 202.534 1256.36 202.004C1257.6 201.473 1258.65 200.711 1259.52 199.717C1260.38 198.722 1260.99 197.529 1261.35 196.137H1267.22C1266.89 198.391 1266.07 200.421 1264.76 202.227C1263.47 204.017 1261.75 205.442 1259.61 206.503C1257.49 207.547 1255.02 208.069 1252.21 208.069ZM1302.84 177.643L1297.57 179.134C1297.24 178.256 1296.75 177.402 1296.11 176.574C1295.48 175.729 1294.61 175.033 1293.52 174.486C1292.43 173.939 1291.03 173.665 1289.32 173.665C1286.98 173.665 1285.04 174.204 1283.48 175.281C1281.94 176.342 1281.17 177.692 1281.17 179.333C1281.17 180.791 1281.7 181.943 1282.76 182.788C1283.82 183.634 1285.48 184.338 1287.73 184.901L1293.4 186.293C1296.81 187.122 1299.35 188.39 1301.03 190.097C1302.7 191.787 1303.54 193.966 1303.54 196.634C1303.54 198.822 1302.91 200.777 1301.65 202.501C1300.41 204.224 1298.67 205.583 1296.43 206.577C1294.19 207.572 1291.59 208.069 1288.62 208.069C1284.73 208.069 1281.51 207.224 1278.95 205.533C1276.4 203.843 1274.79 201.374 1274.11 198.126L1279.68 196.734C1280.21 198.789 1281.21 200.33 1282.68 201.357C1284.17 202.385 1286.12 202.898 1288.52 202.898C1291.26 202.898 1293.43 202.318 1295.04 201.158C1296.66 199.982 1297.47 198.573 1297.47 196.933C1297.47 195.607 1297.01 194.496 1296.08 193.602C1295.15 192.69 1293.73 192.011 1291.81 191.563L1285.44 190.072C1281.95 189.243 1279.38 187.959 1277.74 186.219C1276.11 184.462 1275.3 182.266 1275.3 179.631C1275.3 177.477 1275.91 175.571 1277.11 173.914C1278.34 172.257 1280.01 170.956 1282.11 170.011C1284.23 169.067 1286.64 168.594 1289.32 168.594C1293.1 168.594 1296.06 169.423 1298.22 171.08C1300.39 172.737 1301.93 174.925 1302.84 177.643Z" fill="#F8FAFC"/>
</svg>
