<svg xmlns="http://www.w3.org/2000/svg" width="260" height="40" viewBox="0 0 1181 182" role="img" aria-label="Synthesize Bio">
  <title>Synthesize Bio</title>
  <g fill="#F8FAFC">
    <path d="M138.155 79.6677C162.718 83.461 181.522 104.694 181.522 130.319C181.522 158.626 158.576 181.573 130.27 181.573C104.644 181.573 83.4115 162.767 79.6191 138.203H138.155V79.6677ZM51.418 0.21167C77.0421 0.211866 98.2737 19.0166 102.067 43.5789H43.5332V102.117C18.97 98.3244 0.164253 77.0922 0.164062 51.4666C0.164062 23.1595 23.1114 0.21167 51.418 0.21167Z" />
    <path d="M1139.52 137.515C1132.21 137.515 1125.56 135.853 1119.58 132.529C1113.69 129.205 1109.04 124.504 1105.62 118.426C1102.29 112.254 1100.63 105.131 1100.63 97.0591C1100.63 89.0819 1102.34 82.0544 1105.76 75.9766C1109.27 69.8038 1114.02 65.103 1120 61.8742C1125.99 58.5503 1132.68 56.8884 1140.09 56.8884C1147.5 56.8884 1154.19 58.5503 1160.17 61.8742C1166.16 65.103 1170.86 69.7563 1174.28 75.8342C1177.79 81.912 1179.55 88.987 1179.55 97.0591C1179.55 105.131 1177.74 112.254 1174.13 118.426C1170.62 124.504 1165.83 129.205 1159.75 132.529C1153.67 135.853 1146.93 137.515 1139.52 137.515ZM1139.52 126.119C1144.17 126.119 1148.54 125.027 1152.62 122.842C1156.71 120.658 1159.98 117.382 1162.45 113.013C1165.02 108.645 1166.3 103.327 1166.3 97.0591C1166.3 90.7913 1165.07 85.4732 1162.6 81.1048C1160.13 76.7363 1156.9 73.5075 1152.91 71.4182C1148.92 69.234 1144.6 68.1419 1139.95 68.1419C1135.2 68.1419 1130.83 69.234 1126.84 71.4182C1122.95 73.5075 1119.81 76.7363 1117.44 81.1048C1115.07 85.4732 1113.88 90.7913 1113.88 97.0591C1113.88 103.422 1115.02 108.787 1117.3 113.156C1119.67 117.524 1122.81 120.801 1126.7 122.985C1130.59 125.074 1134.87 126.119 1139.52 126.119Z" />
    <path d="M1079.96 45.4926C1077.5 45.4926 1075.41 44.6379 1073.7 42.9285C1071.99 41.2191 1071.13 39.1298 1071.13 36.6607C1071.13 34.1916 1071.99 32.1023 1073.7 30.3929C1075.41 28.6836 1077.5 27.8289 1079.96 27.8289C1082.34 27.8289 1084.33 28.6836 1085.95 30.3929C1087.66 32.1023 1088.51 34.1916 1088.51 36.6607C1088.51 39.1298 1087.66 41.2191 1085.95 42.9285C1084.33 44.6379 1082.34 45.4926 1079.96 45.4926ZM1086.23 58.1705V136.233H1073.27V58.1705H1086.23Z" />
    <path d="M1038.47 85.0929C1042.08 85.6627 1045.36 87.1346 1048.3 89.5088C1051.34 91.8829 1053.71 94.8269 1055.42 98.3406C1057.23 101.854 1058.13 105.606 1058.13 109.594C1058.13 114.627 1056.85 119.186 1054.28 123.269C1051.72 127.258 1047.97 130.439 1043.03 132.813C1038.19 135.093 1032.44 136.232 1025.79 136.232H988.756V36.9451H1024.37C1031.11 36.9451 1036.86 38.0847 1041.6 40.3638C1046.35 42.5481 1049.91 45.5395 1052.29 49.3381C1054.66 53.1368 1055.85 57.4103 1055.85 62.1586C1055.85 68.0465 1054.23 72.9372 1051.01 76.8308C1047.87 80.6295 1043.69 83.3835 1038.47 85.0929ZM1001.72 79.8223H1023.51C1029.59 79.8223 1034.29 78.3978 1037.62 75.5488C1040.94 72.6998 1042.6 68.7587 1042.6 63.7255C1042.6 58.6923 1040.94 54.7512 1037.62 51.9022C1034.29 49.0532 1029.5 47.6288 1023.23 47.6288H1001.72V79.8223ZM1024.65 125.548C1031.11 125.548 1036.14 124.029 1039.75 120.99C1043.36 117.951 1045.17 113.725 1045.17 108.312C1045.17 102.804 1043.27 98.4831 1039.47 95.3492C1035.67 92.1204 1030.59 90.5059 1024.23 90.5059H1001.72V125.548H1024.65Z" />
    <path d="M939.365 94.2101C939.365 96.6792 939.222 99.2908 938.937 102.045H876.545C877.019 109.737 879.631 115.767 884.379 120.136C889.223 124.409 895.063 126.546 901.901 126.546C907.504 126.546 912.157 125.264 915.861 122.7C919.659 120.041 922.318 116.527 923.838 112.159H937.798C935.708 119.661 931.53 125.786 925.262 130.535C918.994 135.188 911.207 137.515 901.901 137.515C894.493 137.515 887.846 135.853 881.958 132.529C876.165 129.205 871.606 124.504 868.283 118.426C864.959 112.254 863.297 105.131 863.297 97.0591C863.297 88.987 864.911 81.912 868.14 75.8342C871.369 69.7563 875.88 65.103 881.673 61.8742C887.561 58.5503 894.303 56.8884 901.901 56.8884C909.308 56.8884 915.861 58.5029 921.559 61.7317C927.257 64.9606 931.625 69.424 934.664 75.1219C937.798 80.7249 939.365 87.0877 939.365 94.2101ZM925.974 91.5036C925.974 86.5653 924.882 82.3393 922.698 78.8256C920.514 75.2169 917.523 72.5104 913.724 70.706C910.02 68.8067 905.889 67.857 901.331 67.857C894.778 67.857 889.175 69.9463 884.522 74.1248C879.963 78.3033 877.352 84.0962 876.687 91.5036H925.974Z" />
    <path d="M815.85 125.548H854.169V136.232H801.035V125.548L838.927 68.7109H801.32V58.1697H853.884V68.7109L815.85 125.548Z" />
    <path d="M780.652 45.4926C778.183 45.4926 776.094 44.6379 774.384 42.9285C772.675 41.2191 771.82 39.1298 771.82 36.6607C771.82 34.1916 772.675 32.1023 774.384 30.3929C776.094 28.6836 778.183 27.8289 780.652 27.8289C783.026 27.8289 785.021 28.6836 786.635 30.3929C788.344 32.1023 789.199 34.1916 789.199 36.6607C789.199 39.1298 788.344 41.2191 786.635 42.9285C785.021 44.6379 783.026 45.4926 780.652 45.4926ZM786.92 58.1705V136.233H773.957V58.1705H786.92Z" />
    <path d="M730.016 137.515C724.033 137.515 718.668 136.518 713.919 134.523C709.171 132.434 705.42 129.585 702.666 125.976C699.912 122.273 698.392 118.047 698.107 113.298H711.498C711.878 117.192 713.682 120.373 716.911 122.842C720.235 125.311 724.555 126.546 729.874 126.546C734.812 126.546 738.705 125.454 741.554 123.27C744.403 121.086 745.828 118.331 745.828 115.008C745.828 111.589 744.308 109.072 741.269 107.458C738.231 105.748 733.53 104.087 727.167 102.472C721.374 100.953 716.626 99.4332 712.922 97.9138C709.313 96.2994 706.18 93.9727 703.52 90.9338C700.956 87.7999 699.674 83.7164 699.674 78.6832C699.674 74.6946 700.861 71.0384 703.236 67.7146C705.61 64.3908 708.981 61.7792 713.349 59.8799C717.718 57.8856 722.704 56.8884 728.307 56.8884C736.949 56.8884 743.929 59.0727 749.247 63.4411C754.565 67.8095 757.414 73.7924 757.794 81.3897H744.831C744.546 77.3061 742.884 74.0298 739.845 71.5607C736.901 69.0916 732.912 67.857 727.879 67.857C723.226 67.857 719.522 68.8542 716.768 70.8484C714.014 72.8427 712.637 75.4543 712.637 78.6832C712.637 81.2472 713.444 83.384 715.059 85.0934C716.768 86.7078 718.858 88.0373 721.327 89.0819C723.891 90.0316 727.404 91.1237 731.868 92.3583C737.471 93.8777 742.029 95.3972 745.543 96.9166C749.057 98.3411 752.048 100.525 754.517 103.469C757.081 106.413 758.411 110.259 758.506 115.008C758.506 119.281 757.319 123.127 754.945 126.546C752.57 129.965 749.199 132.671 744.831 134.666C740.557 136.565 735.619 137.515 730.016 137.515Z" />
    <path d="M688.121 94.2101C688.121 96.6792 687.978 99.2908 687.693 102.045H625.301C625.775 109.737 628.387 115.767 633.135 120.136C637.978 124.409 643.819 126.546 650.656 126.546C656.259 126.546 660.913 125.264 664.616 122.7C668.415 120.041 671.074 116.527 672.594 112.159H686.554C684.464 119.661 680.286 125.786 674.018 130.535C667.75 135.188 659.963 137.515 650.656 137.515C643.249 137.515 636.601 135.853 630.714 132.529C624.921 129.205 620.362 124.504 617.038 118.426C613.715 112.254 612.053 105.131 612.053 97.0591C612.053 88.987 613.667 81.912 616.896 75.8342C620.125 69.7563 624.636 65.103 630.429 61.8742C636.317 58.5503 643.059 56.8884 650.656 56.8884C658.064 56.8884 664.616 58.5029 670.314 61.7317C676.012 64.9606 680.381 69.424 683.42 75.1219C686.554 80.7249 688.121 87.0877 688.121 94.2101ZM674.73 91.5036C674.73 86.5653 673.638 82.3393 671.454 78.8256C669.27 75.2169 666.278 72.5104 662.48 70.706C658.776 68.8067 654.645 67.857 650.087 67.857C643.534 67.857 637.931 69.9463 633.278 74.1248C628.719 78.3033 626.108 84.0962 625.443 91.5036H674.73Z" />
    <path d="M567.373 56.7458C573.261 56.7458 578.579 58.0278 583.327 60.5919C588.076 63.0611 591.779 66.8122 594.438 71.8454C597.192 76.8786 598.569 83.0039 598.569 90.2214V136.232H585.749V92.0732C585.749 84.286 583.802 78.3506 579.909 74.267C576.015 70.0885 570.697 67.9993 563.954 67.9993C557.117 67.9993 551.656 70.136 547.573 74.4095C543.584 78.683 541.59 84.9032 541.59 93.0703V136.232H528.627V30.8201H541.59V69.2813C544.154 65.2928 547.668 62.2064 552.131 60.0221C556.689 57.8379 561.77 56.7458 567.373 56.7458Z" />
    <path d="M495.401 68.8541V114.865C495.401 118.664 496.208 121.37 497.823 122.985C499.437 124.504 502.239 125.264 506.227 125.264H515.771V136.233H504.09C496.873 136.233 491.46 134.571 487.851 131.247C484.242 127.923 482.438 122.462 482.438 114.865V68.8541H472.324V58.1704H482.438V38.5125H495.401V58.1704H515.771V68.8541H495.401Z" />
    <path d="M429.354 56.7449C438.851 56.7449 446.543 59.6413 452.431 65.4343C458.319 71.1322 461.263 79.3943 461.263 90.2204V136.231H448.442V92.0723C448.442 84.285 446.496 78.3497 442.602 74.2661C438.708 70.0876 433.39 67.9984 426.648 67.9984C419.81 67.9984 414.35 70.1351 410.266 74.4086C406.277 78.682 404.283 84.9023 404.283 93.0694V136.231H391.32V58.1694H404.283V69.2804C406.847 65.2918 410.314 62.2054 414.682 60.0212C419.145 57.837 424.036 56.7449 429.354 56.7449Z" />
    <path d="M381.14 58.1697L334.132 172.984H320.741L336.126 135.377L304.645 58.1697H319.032L343.533 121.417L367.749 58.1697H381.14Z" />
    <path d="M264.629 137.23C258.076 137.23 252.189 136.09 246.965 133.811C241.837 131.437 237.801 128.208 234.857 124.125C231.913 119.946 230.394 115.15 230.299 109.737H244.116C244.591 114.391 246.491 118.332 249.814 121.561C253.233 124.695 258.171 126.261 264.629 126.261C270.802 126.261 275.645 124.742 279.159 121.703C282.768 118.569 284.572 114.581 284.572 109.737C284.572 105.939 283.527 102.852 281.438 100.478C279.349 98.104 276.737 96.2997 273.603 95.0651C270.469 93.8305 266.243 92.501 260.925 91.0765C254.373 89.3671 249.102 87.6577 245.114 85.9484C241.22 84.239 237.849 81.5799 235 77.9712C232.246 74.2675 230.869 69.3293 230.869 63.1565C230.869 57.7434 232.246 52.9476 235 48.7691C237.754 44.5906 241.6 41.3618 246.538 39.0826C251.571 36.8034 257.317 35.6638 263.774 35.6638C273.081 35.6638 280.678 37.9905 286.566 42.6438C292.549 47.2972 295.92 53.47 296.68 61.1622H282.435C281.96 57.3636 279.966 54.0398 276.452 51.1908C272.939 48.2468 268.285 46.7749 262.492 46.7749C257.079 46.7749 252.663 48.1993 249.245 51.0483C245.826 53.8023 244.116 57.696 244.116 62.7292C244.116 66.3379 245.114 69.2818 247.108 71.561C249.197 73.8402 251.714 75.5971 254.658 76.8316C257.697 77.9712 261.923 79.3007 267.336 80.8202C273.888 82.6245 279.159 84.4289 283.147 86.2333C287.136 87.9426 290.555 90.6492 293.404 94.3529C296.253 97.9616 297.677 102.9 297.677 109.168C297.677 114.011 296.395 118.569 293.831 122.843C291.267 127.116 287.468 130.582 282.435 133.241C277.402 135.901 271.467 137.23 264.629 137.23Z" />
  </g>
</svg>
